<svg xmlns="http://www.w3.org/2000/svg" xmlns:xlink="http://www.w3.org/1999/xlink" width="138" height="27" viewBox="0 0 138 27">
    <defs>
        <rect id="a" width="24" height="18" y="4.125" rx="2"/>
    </defs>
    <g fill="none" fill-rule="evenodd">
        <path fill="#0074CD" d="M49.775 8.375V21H46.7v-2.025a4.056 4.056 0 0 1-1.65 1.637c-.717.392-1.533.588-2.45.588-1.1 0-2.075-.267-2.925-.8-.85-.533-1.508-1.292-1.975-2.275-.467-.983-.7-2.125-.7-3.425 0-1.3.237-2.454.712-3.462.476-1.009 1.138-1.792 1.988-2.35.85-.559 1.817-.838 2.9-.838.917 0 1.733.196 2.45.587a4.056 4.056 0 0 1 1.65 1.638v-1.9h3.075zm-3.925 9.3c.567-.717.85-1.725.85-3.025 0-1.333-.283-2.358-.85-3.075-.567-.717-1.375-1.075-2.425-1.075-1.033 0-1.837.37-2.412 1.113-.576.741-.863 1.77-.863 3.087 0 1.3.287 2.3.863 3 .575.7 1.387 1.05 2.437 1.05 1.033 0 1.833-.358 2.4-1.075zm17.413-8.788c.841.559 1.5 1.342 1.974 2.35.476 1.009.713 2.163.713 3.463 0 1.3-.233 2.442-.7 3.425-.467.983-1.12 1.742-1.962 2.275-.842.533-1.813.8-2.913.8-.917 0-1.733-.196-2.45-.587a4.056 4.056 0 0 1-1.65-1.638V26.4h-3.1V11.95c0-1.333-.067-2.525-.2-3.575H55.9l.25 2.175a3.826 3.826 0 0 1 1.625-1.838c.75-.441 1.617-.662 2.6-.662 1.083 0 2.046.28 2.888.838zM61.95 17.7c.567-.7.85-1.7.85-3 0-1.317-.283-2.346-.85-3.087-.567-.742-1.367-1.113-2.4-1.113-1.067 0-1.883.358-2.45 1.075-.567.717-.85 1.742-.85 3.075 0 1.317.283 2.33.85 3.037.567.709 1.375 1.063 2.425 1.063 1.05 0 1.858-.35 2.425-1.05zm16.813-8.813c.841.559 1.5 1.342 1.974 2.35.476 1.009.713 2.163.713 3.463 0 1.3-.233 2.442-.7 3.425-.467.983-1.12 1.742-1.963 2.275-.841.533-1.812.8-2.912.8-.917 0-1.733-.196-2.45-.587a4.056 4.056 0 0 1-1.65-1.638V26.4h-3.1V11.95c0-1.333-.067-2.525-.2-3.575H71.4l.25 2.175a3.826 3.826 0 0 1 1.625-1.838c.75-.441 1.617-.662 2.6-.662 1.083 0 2.046.28 2.888.838zM77.45 17.7c.567-.7.85-1.7.85-3 0-1.317-.283-2.346-.85-3.087-.567-.742-1.367-1.113-2.4-1.113-1.067 0-1.883.358-2.45 1.075-.567.717-.85 1.742-.85 3.075 0 1.317.283 2.33.85 3.037.567.709 1.375 1.063 2.425 1.063 1.05 0 1.858-.35 2.425-1.05zm6.725 3.3V2.6h3.1V21h-3.1zm6.525 0V8.375h3.1V21h-3.1zm-.2-18.35h3.475v3.075H90.5V2.65zm9.025 17.75a5.442 5.442 0 0 1-2.225-2.262c-.517-.976-.775-2.121-.775-3.438 0-1.317.27-2.475.813-3.475.541-1 1.308-1.78 2.3-2.337.991-.559 2.137-.838 3.437-.838.9 0 1.77.142 2.612.425.842.283 1.513.675 2.013 1.175l-.875 2.2a6.069 6.069 0 0 0-1.7-.988 5.031 5.031 0 0 0-1.775-.337c-1.133 0-2.017.354-2.65 1.062-.633.709-.95 1.73-.95 3.063 0 1.333.312 2.35.938 3.05.625.7 1.512 1.05 2.662 1.05.583 0 1.175-.117 1.775-.35a6.326 6.326 0 0 0 1.7-1l.875 2.2c-.533.5-1.225.892-2.075 1.175a8.403 8.403 0 0 1-2.675.425c-1.317 0-2.458-.267-3.425-.8zm22.35-12.025V21H118.8v-2.025a4.056 4.056 0 0 1-1.65 1.637c-.717.392-1.533.588-2.45.588-1.1 0-2.075-.267-2.925-.8-.85-.533-1.508-1.292-1.975-2.275-.467-.983-.7-2.125-.7-3.425 0-1.3.237-2.454.713-3.462.475-1.009 1.137-1.792 1.987-2.35.85-.559 1.817-.838 2.9-.838.917 0 1.733.196 2.45.587a4.056 4.056 0 0 1 1.65 1.638v-1.9h3.075zm-3.925 9.3c.567-.717.85-1.725.85-3.025 0-1.333-.283-2.358-.85-3.075-.567-.717-1.375-1.075-2.425-1.075-1.033 0-1.837.37-2.413 1.113-.575.741-.862 1.77-.862 3.087 0 1.3.287 2.3.862 3 .576.7 1.388 1.05 2.438 1.05 1.033 0 1.833-.358 2.4-1.075zm19.075-4.425V21H133.9v-7.6c0-1-.192-1.73-.575-2.188-.383-.458-.975-.687-1.775-.687-.95 0-1.717.304-2.3.912-.583.609-.875 1.413-.875 2.413V21h-3.1v-9.05c0-1.333-.067-2.525-.2-3.575H128l.225 2.075a4.568 4.568 0 0 1 1.763-1.775c.741-.417 1.579-.625 2.512-.625 3.017 0 4.525 1.733 4.525 5.2z"/>
        <g transform="translate(0 2)">
            <use fill="#0074CD" xlink:href="#a"/>
            <rect width="22" height="16" x="1" y="5.125" stroke="#0074CD" stroke-width="2" rx="2"/>
        </g>
        <path fill="#FFF" d="M4.735 8.875h2.706V21.25H4.735zM16.559 8.875h2.706V21.25h-2.706z"/>
        <path stroke="#0074CD" stroke-width="3" d="M6.088 8V4.394C6.088 3.072 7.218 2 8.618 2h6.94c1.397 0 2.53 1.072 2.53 2.394V8"/>
    </g>
</svg>
