<svg xmlns="http://www.w3.org/2000/svg" width="120" height="30" viewBox="0 0 120 30">
    <g fill="none" fill-rule="evenodd">
        <rect width="120" height="30" fill="#0074CD" rx="4"/>
        <path fill="#FFF" d="M36.016 19.776a5.27 5.27 0 0 1-1.896-1.056l.592-1.216c.555.448 1.13.773 1.728.976.597.203 1.27.304 2.016.304.853 0 1.515-.16 1.984-.48.47-.32.704-.773.704-1.36 0-.49-.219-.861-.656-1.112-.437-.25-1.13-.483-2.08-.696-.907-.192-1.648-.413-2.224-.664-.576-.25-1.03-.587-1.36-1.008-.33-.421-.496-.963-.496-1.624 0-.661.176-1.245.528-1.752.352-.507.85-.901 1.496-1.184.645-.283 1.39-.424 2.232-.424.8 0 1.55.123 2.248.368.699.245 1.283.592 1.752 1.04l-.592 1.216a5.581 5.581 0 0 0-1.616-.968 5.016 5.016 0 0 0-1.776-.312c-.821 0-1.467.173-1.936.52-.47.347-.704.819-.704 1.416 0 .512.205.901.616 1.168.41.267 1.07.507 1.976.72.95.213 1.717.437 2.304.672.587.235 1.056.555 1.408.96.352.405.528.928.528 1.568 0 .661-.176 1.237-.528 1.728-.352.49-.856.872-1.512 1.144-.656.272-1.427.408-2.312.408-.885 0-1.693-.117-2.424-.352zm15.688-7.84V20h-1.568v-1.344c-.256.47-.608.83-1.056 1.08-.448.25-.955.376-1.52.376-1.941 0-2.912-1.077-2.912-3.232v-4.944h1.6v4.928c0 .661.136 1.15.408 1.464.272.315.685.472 1.24.472.661 0 1.192-.213 1.592-.64.4-.427.6-.992.6-1.696v-4.528h1.616zm8.512.32c.544.341.965.827 1.264 1.456.299.63.448 1.36.448 2.192 0 .832-.152 1.565-.456 2.2-.304.635-.728 1.128-1.272 1.48a3.341 3.341 0 0 1-1.856.528c-.619 0-1.16-.13-1.624-.392a2.499 2.499 0 0 1-1.048-1.128V20h-1.6V8.224h1.6v5.04c.235-.48.584-.853 1.048-1.12.464-.267 1.005-.4 1.624-.4.704 0 1.328.17 1.872.512zm-.544 5.8c.405-.517.608-1.235.608-2.152 0-.907-.203-1.61-.608-2.112-.405-.501-.97-.752-1.696-.752-.736 0-1.304.25-1.704.752-.4.501-.6 1.216-.6 2.144 0 .928.2 1.643.6 2.144.4.501.968.752 1.704.752.725 0 1.29-.259 1.696-.776zm16.032-3.08V20h-1.616v-4.944c0-.693-.12-1.2-.36-1.52-.24-.32-.627-.48-1.16-.48-.619 0-1.107.213-1.464.64-.357.427-.536 1.008-.536 1.744V20h-1.616v-4.944c0-.693-.12-1.2-.36-1.52-.24-.32-.627-.48-1.16-.48-.619 0-1.11.213-1.472.64-.363.427-.544 1.008-.544 1.744V20h-1.6v-5.792c0-.843-.043-1.6-.128-2.272h1.504l.144 1.344c.235-.49.57-.87 1.008-1.136.437-.267.95-.4 1.536-.4 1.248 0 2.064.517 2.448 1.552.245-.48.605-.859 1.08-1.136a3.128 3.128 0 0 1 1.608-.416c1.792 0 2.688 1.077 2.688 3.232zM78.024 20v-8.064h1.6V20h-1.6zM77.88 8.416h1.872v1.696H77.88V8.416zm6.208 4.768v4.048c0 .555.12.947.36 1.176.24.23.573.344 1 .344.277 0 .56-.043.848-.128v1.312a3.787 3.787 0 0 1-1.2.176c-.832 0-1.477-.235-1.936-.704-.459-.47-.688-1.152-.688-2.048v-4.176h-1.568v-1.248h1.568V9.92l1.616-.56v2.576h2.224v1.248h-2.224z"/>
    </g>
</svg>
