<svg xmlns="http://www.w3.org/2000/svg" xmlns:xlink="http://www.w3.org/1999/xlink" width="160" height="30" viewBox="0 0 160 30">
    <defs>
        <rect id="a" width="160" height="30" rx="4"/>
    </defs>
    <g fill="none" fill-rule="evenodd">
        <g>
            <use fill="#FFF" xlink:href="#a"/>
            <rect width="158" height="28" x="1" y="1" stroke="#E90000" stroke-width="2" rx="4"/>
        </g>
        <path fill="#E90000" d="M27.676 20h-1.744l-1.424-3.792c-.15-.405-.368-.685-.656-.84-.288-.155-.683-.232-1.184-.232h-2.496V20H18.54V8.608h4.688c1.248 0 2.205.277 2.872.832.667.555 1 1.35 1 2.384 0 .747-.197 1.381-.592 1.904-.395.523-.955.89-1.68 1.104.661.117 1.141.587 1.44 1.408L27.676 20zm-4.64-6.192c.832 0 1.45-.163 1.856-.488.405-.325.608-.813.608-1.464 0-.65-.2-1.133-.6-1.448-.4-.315-1.021-.472-1.864-.472h-2.864v3.872h2.864zM36.428 16h-5.76c.053 1.888.912 2.832 2.576 2.832.928 0 1.776-.304 2.544-.912l.496 1.152c-.363.32-.824.573-1.384.76-.56.187-1.123.28-1.688.28-1.29 0-2.304-.37-3.04-1.112-.736-.741-1.104-1.757-1.104-3.048 0-.821.163-1.552.488-2.192a3.588 3.588 0 0 1 1.368-1.488c.587-.352 1.253-.528 2-.528 1.088 0 1.944.352 2.568 1.056.624.704.936 1.68.936 2.928V16zm-4.96-2.512c-.384.363-.63.88-.736 1.552h4.272c-.064-.683-.272-1.203-.624-1.56s-.827-.536-1.424-.536c-.608 0-1.104.181-1.488.544zm5.488 8.688c.885 0 1.328-.507 1.328-1.52v-8.72h1.6v8.848c0 .896-.224 1.579-.672 2.048-.448.47-1.077.704-1.888.704-.416 0-.8-.053-1.152-.16v-1.328c.299.085.56.128.784.128zm1.184-13.76h1.872v1.696H38.14V8.416zM49.132 16h-5.76c.053 1.888.912 2.832 2.576 2.832.928 0 1.776-.304 2.544-.912l.496 1.152c-.363.32-.824.573-1.384.76-.56.187-1.123.28-1.688.28-1.29 0-2.304-.37-3.04-1.112-.736-.741-1.104-1.757-1.104-3.048 0-.821.163-1.552.488-2.192a3.588 3.588 0 0 1 1.368-1.488c.587-.352 1.253-.528 2-.528 1.088 0 1.944.352 2.568 1.056.624.704.936 1.68.936 2.928V16zm-4.96-2.512c-.384.363-.63.88-.736 1.552h4.272c-.064-.683-.272-1.203-.624-1.56s-.827-.536-1.424-.536c-.608 0-1.104.181-1.488.544zm8.2 6.112a3.421 3.421 0 0 1-1.384-1.448c-.32-.624-.48-1.352-.48-2.184 0-.832.168-1.568.504-2.208a3.63 3.63 0 0 1 1.416-1.488c.608-.352 1.317-.528 2.128-.528.565 0 1.11.093 1.632.28.523.187.944.44 1.264.76l-.496 1.168c-.757-.597-1.52-.896-2.288-.896-.779 0-1.387.253-1.824.76-.437.507-.656 1.219-.656 2.136s.219 1.624.656 2.12c.437.496 1.045.744 1.824.744.79 0 1.552-.299 2.288-.896l.496 1.168c-.341.32-.776.57-1.304.752a5.062 5.062 0 0 1-1.656.272c-.81 0-1.517-.17-2.12-.512zm8.696-6.416v4.048c0 .555.12.947.36 1.176.24.23.573.344 1 .344.277 0 .56-.043.848-.128v1.312a3.787 3.787 0 0 1-1.2.176c-.832 0-1.477-.235-1.936-.704-.459-.47-.688-1.152-.688-2.048v-4.176h-1.568v-1.248h1.568V9.92l1.616-.56v2.576h2.224v1.248h-2.224zm10.264 6.232a4.73 4.73 0 0 1-1.88-2.024c-.437-.875-.656-1.91-.656-3.104 0-1.184.219-2.213.656-3.088a4.68 4.68 0 0 1 1.88-2.016c.816-.47 1.773-.704 2.872-.704.779 0 1.501.12 2.168.36.667.24 1.23.59 1.688 1.048l-.576 1.216c-.533-.437-1.059-.755-1.576-.952a4.698 4.698 0 0 0-1.688-.296c-1.184 0-2.099.384-2.744 1.152-.645.768-.968 1.861-.968 3.28 0 1.43.323 2.53.968 3.304.645.773 1.56 1.16 2.744 1.16.608 0 1.17-.099 1.688-.296.517-.197 1.043-.515 1.576-.952l.576 1.216a4.506 4.506 0 0 1-1.688 1.048c-.667.24-1.39.36-2.168.36-1.099 0-2.056-.237-2.872-.712zm16.04-7.48V20h-1.6v-1.376a2.47 2.47 0 0 1-1.048 1.104c-.464.256-1.005.384-1.624.384-.715 0-1.341-.17-1.88-.512-.539-.341-.957-.824-1.256-1.448-.299-.624-.448-1.352-.448-2.184 0-.832.152-1.568.456-2.208.304-.64.728-1.136 1.272-1.488a3.341 3.341 0 0 1 1.856-.528c.619 0 1.157.13 1.616.392.459.261.81.632 1.056 1.112v-1.312h1.6zm-2.2 6.136c.4-.507.6-1.219.6-2.136 0-.928-.2-1.643-.6-2.144-.4-.501-.968-.752-1.704-.752-.725 0-1.293.259-1.704.776-.41.517-.616 1.235-.616 2.152 0 .907.205 1.61.616 2.112.41.501.984.752 1.72.752.725 0 1.288-.253 1.688-.76zm11.752-3.096V20h-1.616v-4.928c0-.704-.136-1.216-.408-1.536-.272-.32-.707-.48-1.304-.48-.683 0-1.23.213-1.64.64-.41.427-.616.997-.616 1.712V20h-1.6v-5.792c0-.843-.043-1.6-.128-2.272h1.504l.144 1.392a2.696 2.696 0 0 1 1.112-1.176c.485-.272 1.037-.408 1.656-.408 1.93 0 2.896 1.077 2.896 3.232zm9.68-6.752V20h-1.6v-1.376a2.47 2.47 0 0 1-1.048 1.104c-.464.256-1.005.384-1.624.384a3.341 3.341 0 0 1-1.856-.528c-.544-.352-.968-.845-1.272-1.48-.304-.635-.456-1.368-.456-2.2 0-.832.15-1.563.448-2.192.299-.63.717-1.115 1.256-1.456.539-.341 1.165-.512 1.88-.512.608 0 1.144.128 1.608.384.464.256.813.619 1.048 1.088V8.224h1.616zm-2.2 9.848c.4-.507.6-1.219.6-2.136s-.2-1.63-.6-2.136c-.4-.507-.963-.76-1.688-.76-.736 0-1.31.25-1.72.752-.41.501-.616 1.205-.616 2.112 0 .917.205 1.635.616 2.152.41.517.979.776 1.704.776.736 0 1.304-.253 1.704-.76zM108.972 20v-8.064h1.6V20h-1.6zm-.144-11.584h1.872v1.696h-1.872V8.416zm11.488-.192V20h-1.6v-1.376a2.47 2.47 0 0 1-1.048 1.104c-.464.256-1.005.384-1.624.384a3.341 3.341 0 0 1-1.856-.528c-.544-.352-.968-.845-1.272-1.48-.304-.635-.456-1.368-.456-2.2 0-.832.15-1.563.448-2.192.299-.63.717-1.115 1.256-1.456.539-.341 1.165-.512 1.88-.512.608 0 1.144.128 1.608.384.464.256.813.619 1.048 1.088V8.224h1.616zm-2.2 9.848c.4-.507.6-1.219.6-2.136s-.2-1.63-.6-2.136c-.4-.507-.963-.76-1.688-.76-.736 0-1.31.25-1.72.752-.41.501-.616 1.205-.616 2.112 0 .917.205 1.635.616 2.152.41.517.979.776 1.704.776.736 0 1.304-.253 1.704-.76zm11.944-6.136V20h-1.6v-1.376a2.47 2.47 0 0 1-1.048 1.104c-.464.256-1.005.384-1.624.384-.715 0-1.341-.17-1.88-.512-.539-.341-.957-.824-1.256-1.448-.299-.624-.448-1.352-.448-2.184 0-.832.152-1.568.456-2.208.304-.64.728-1.136 1.272-1.488a3.341 3.341 0 0 1 1.856-.528c.619 0 1.157.13 1.616.392.459.261.81.632 1.056 1.112v-1.312h1.6zm-2.2 6.136c.4-.507.6-1.219.6-2.136 0-.928-.2-1.643-.6-2.144-.4-.501-.968-.752-1.704-.752-.725 0-1.293.259-1.704.776-.41.517-.616 1.235-.616 2.152 0 .907.205 1.61.616 2.112.41.501.984.752 1.72.752.725 0 1.288-.253 1.688-.76zm6.664-4.888v4.048c0 .555.12.947.36 1.176.24.23.573.344 1 .344.277 0 .56-.043.848-.128v1.312a3.787 3.787 0 0 1-1.2.176c-.832 0-1.477-.235-1.936-.704-.459-.47-.688-1.152-.688-2.048v-4.176h-1.568v-1.248h1.568V9.92l1.616-.56v2.576h2.224v1.248h-2.224zM145.116 16h-5.76c.053 1.888.912 2.832 2.576 2.832.928 0 1.776-.304 2.544-.912l.496 1.152c-.363.32-.824.573-1.384.76-.56.187-1.123.28-1.688.28-1.29 0-2.304-.37-3.04-1.112-.736-.741-1.104-1.757-1.104-3.048 0-.821.163-1.552.488-2.192a3.588 3.588 0 0 1 1.368-1.488c.587-.352 1.253-.528 2-.528 1.088 0 1.944.352 2.568 1.056.624.704.936 1.68.936 2.928V16zm-4.96-2.512c-.384.363-.63.88-.736 1.552h4.272c-.064-.683-.272-1.203-.624-1.56s-.827-.536-1.424-.536c-.608 0-1.104.181-1.488.544z"/>
    </g>
</svg>
