<svg xmlns="http://www.w3.org/2000/svg" width="120" height="30" viewBox="0 0 120 30">
    <g fill="none" fill-rule="evenodd">
        <rect width="120" height="30" fill="#0074CD" rx="4"/>
        <path fill="#FFF" d="M20.304 18.944c-.784-.79-1.176-1.947-1.176-3.472V8.608h1.616v6.976c0 1.056.253 1.853.76 2.392.507.539 1.256.808 2.248.808.981 0 1.725-.272 2.232-.816.507-.544.76-1.339.76-2.384V8.608h1.632v6.864c0 1.525-.392 2.683-1.176 3.472-.784.79-1.933 1.184-3.448 1.184s-2.664-.395-3.448-1.184zm16.632-6.672c.544.352.968.848 1.272 1.488.304.64.456 1.376.456 2.208 0 .832-.15 1.56-.448 2.184-.299.624-.72 1.107-1.264 1.448-.544.341-1.168.512-1.872.512-.619 0-1.16-.13-1.624-.392a2.499 2.499 0 0 1-1.048-1.128v4.864h-1.6v-9.248c0-.843-.043-1.6-.128-2.272h1.504l.16 1.488c.213-.533.56-.947 1.04-1.24.48-.293 1.045-.44 1.696-.44.693 0 1.312.176 1.856.528zm-.528 5.808c.405-.501.608-1.205.608-2.112 0-.917-.203-1.635-.608-2.152-.405-.517-.97-.776-1.696-.776-.747 0-1.317.25-1.712.752-.395.501-.592 1.216-.592 2.144 0 .928.2 1.643.6 2.144.4.501.968.752 1.704.752.725 0 1.29-.25 1.696-.752zM40.552 20V8.224h1.6V20h-1.6zm5.36-.4a3.474 3.474 0 0 1-1.384-1.456c-.325-.63-.488-1.365-.488-2.208 0-.843.163-1.581.488-2.216a3.464 3.464 0 0 1 1.384-1.464c.597-.341 1.29-.512 2.08-.512.779 0 1.467.17 2.064.512.597.341 1.059.83 1.384 1.464.325.635.488 1.373.488 2.216 0 .843-.163 1.579-.488 2.208a3.474 3.474 0 0 1-1.384 1.456c-.597.341-1.285.512-2.064.512-.79 0-1.483-.17-2.08-.512zm3.776-1.504c.395-.49.592-1.21.592-2.16 0-.928-.2-1.643-.6-2.144-.4-.501-.963-.752-1.688-.752-.736 0-1.307.25-1.712.752-.405.501-.608 1.216-.608 2.144 0 .95.2 1.67.6 2.16.4.49.968.736 1.704.736.747 0 1.317-.245 1.712-.736zm11.504-6.16V20h-1.6v-1.376a2.47 2.47 0 0 1-1.048 1.104c-.464.256-1.005.384-1.624.384-.715 0-1.341-.17-1.88-.512-.539-.341-.957-.824-1.256-1.448-.299-.624-.448-1.352-.448-2.184 0-.832.152-1.568.456-2.208.304-.64.728-1.136 1.272-1.488a3.341 3.341 0 0 1 1.856-.528c.619 0 1.157.13 1.616.392.459.261.81.632 1.056 1.112v-1.312h1.6zm-2.2 6.136c.4-.507.6-1.219.6-2.136 0-.928-.2-1.643-.6-2.144-.4-.501-.968-.752-1.704-.752-.725 0-1.293.259-1.704.776-.41.517-.616 1.235-.616 2.152 0 .907.205 1.61.616 2.112.41.501.984.752 1.72.752.725 0 1.288-.253 1.688-.76zm11.944-9.848V20h-1.6v-1.376a2.47 2.47 0 0 1-1.048 1.104c-.464.256-1.005.384-1.624.384a3.341 3.341 0 0 1-1.856-.528c-.544-.352-.968-.845-1.272-1.48-.304-.635-.456-1.368-.456-2.2 0-.832.15-1.563.448-2.192.299-.63.717-1.115 1.256-1.456.539-.341 1.165-.512 1.88-.512.608 0 1.144.128 1.608.384.464.256.813.619 1.048 1.088V8.224h1.616zm-2.2 9.848c.4-.507.6-1.219.6-2.136s-.2-1.63-.6-2.136c-.4-.507-.963-.76-1.688-.76-.736 0-1.31.25-1.72.752-.41.501-.616 1.205-.616 2.112 0 .917.205 1.635.616 2.152.41.517.979.776 1.704.776.736 0 1.304-.253 1.704-.76zM77.72 20V8.608h7.232v1.36h-5.6v3.568h5.28v1.36h-5.28V20H77.72zm8.928 0v-8.064h1.6V20h-1.6zm-.144-11.584h1.872v1.696h-1.872V8.416zM90.616 20V8.224h1.6V20h-1.6zm10.848-4h-5.76c.053 1.888.912 2.832 2.576 2.832.928 0 1.776-.304 2.544-.912l.496 1.152c-.363.32-.824.573-1.384.76-.56.187-1.123.28-1.688.28-1.29 0-2.304-.37-3.04-1.112-.736-.741-1.104-1.757-1.104-3.048 0-.821.163-1.552.488-2.192a3.588 3.588 0 0 1 1.368-1.488c.587-.352 1.253-.528 2-.528 1.088 0 1.944.352 2.568 1.056.624.704.936 1.68.936 2.928V16zm-4.96-2.512c-.384.363-.63.88-.736 1.552h4.272c-.064-.683-.272-1.203-.624-1.56s-.827-.536-1.424-.536c-.608 0-1.104.181-1.488.544z"/>
    </g>
</svg>
