<svg xmlns="http://www.w3.org/2000/svg" xmlns:xlink="http://www.w3.org/1999/xlink" width="120" height="30" viewBox="0 0 120 30">
    <defs>
        <rect id="a" width="120" height="30" rx="4"/>
    </defs>
    <g fill="none" fill-rule="evenodd">
        <g>
            <use fill="#FFF" xlink:href="#a"/>
            <rect width="118" height="28" x="1" y="1" stroke="#0074CD" stroke-width="2" rx="4"/>
        </g>
        <path fill="#0074CD" d="M44.04 19.776a5.27 5.27 0 0 1-1.896-1.056l.592-1.216c.555.448 1.13.773 1.728.976.597.203 1.27.304 2.016.304.853 0 1.515-.16 1.984-.48.47-.32.704-.773.704-1.36 0-.49-.219-.861-.656-1.112-.437-.25-1.13-.483-2.08-.696-.907-.192-1.648-.413-2.224-.664-.576-.25-1.03-.587-1.36-1.008-.33-.421-.496-.963-.496-1.624 0-.661.176-1.245.528-1.752.352-.507.85-.901 1.496-1.184.645-.283 1.39-.424 2.232-.424.8 0 1.55.123 2.248.368.699.245 1.283.592 1.752 1.04l-.592 1.216a5.581 5.581 0 0 0-1.616-.968 5.016 5.016 0 0 0-1.776-.312c-.821 0-1.467.173-1.936.52-.47.347-.704.819-.704 1.416 0 .512.205.901.616 1.168.41.267 1.07.507 1.976.72.95.213 1.717.437 2.304.672.587.235 1.056.555 1.408.96.352.405.528.928.528 1.568 0 .661-.176 1.237-.528 1.728-.352.49-.856.872-1.512 1.144-.656.272-1.427.408-2.312.408-.885 0-1.693-.117-2.424-.352zm16.056-7.84V20h-1.6v-1.376a2.47 2.47 0 0 1-1.048 1.104c-.464.256-1.005.384-1.624.384-.715 0-1.341-.17-1.88-.512-.539-.341-.957-.824-1.256-1.448-.299-.624-.448-1.352-.448-2.184 0-.832.152-1.568.456-2.208.304-.64.728-1.136 1.272-1.488a3.341 3.341 0 0 1 1.856-.528c.619 0 1.157.13 1.616.392.459.261.81.632 1.056 1.112v-1.312h1.6zm-2.2 6.136c.4-.507.6-1.219.6-2.136 0-.928-.2-1.643-.6-2.144-.4-.501-.968-.752-1.704-.752-.725 0-1.293.259-1.704.776-.41.517-.616 1.235-.616 2.152 0 .907.205 1.61.616 2.112.41.501.984.752 1.72.752.725 0 1.288-.253 1.688-.76zm10.28-6.12h1.616L66.288 20h-1.456l-3.472-8.048h1.712l2.528 6.224 2.576-6.224zM77.92 16h-5.76c.053 1.888.912 2.832 2.576 2.832.928 0 1.776-.304 2.544-.912l.496 1.152c-.363.32-.824.573-1.384.76-.56.187-1.123.28-1.688.28-1.29 0-2.304-.37-3.04-1.112-.736-.741-1.104-1.757-1.104-3.048 0-.821.163-1.552.488-2.192a3.588 3.588 0 0 1 1.368-1.488c.587-.352 1.253-.528 2-.528 1.088 0 1.944.352 2.568 1.056.624.704.936 1.68.936 2.928V16zm-4.96-2.512c-.384.363-.63.88-.736 1.552h4.272c-.064-.683-.272-1.203-.624-1.56s-.827-.536-1.424-.536c-.608 0-1.104.181-1.488.544z"/>
    </g>
</svg>
