<svg xmlns="http://www.w3.org/2000/svg" xmlns:xlink="http://www.w3.org/1999/xlink" width="36" height="36" viewBox="0 0 36 36">
    <defs>
        <circle id="a" cx="18" cy="18" r="18"/>
    </defs>
    <g fill="none" fill-rule="evenodd">
        <g>
            <use fill="#A787E9" xlink:href="#a"/>
            <circle cx="18" cy="18" r="17.5" stroke="#E7E7E7"/>
        </g>
        <path fill="#FFF" d="M11.242 20.61c.02-.907.164-1.81.43-2.712a12.7 12.7 0 0 1 1.062-2.554c.443-.802.969-1.542 1.578-2.219a11.04 11.04 0 0 1 1.992-1.75c1.5-1.031 3.078-1.547 4.735-1.547 1.708 0 2.87.682 3.484 2.047.219.49.32 1.044.305 1.664a5.35 5.35 0 0 1-.305 1.703 6.046 6.046 0 0 1-.703 1.383c-.636.917-1.276 1.375-1.922 1.375-.719 0-1.25-.198-1.594-.594-.302-.344-.396-.745-.281-1.203.031-.135.125-.258.281-.367.156-.11.354-.284.594-.524.677-.708 1.031-1.536 1.062-2.484.021-.646-.375-.969-1.187-.969-.875 0-1.792.49-2.75 1.47-1.396 1.426-2.38 3.254-2.953 5.483-.5 1.938-.406 3.355.281 4.25.406.521.958.782 1.656.782 1.177 0 2.313-.417 3.407-1.25a4.55 4.55 0 0 0 .812-.797c.208-.271.401-.406.578-.406.177 0 .326.086.446.257.12.172.18.394.18.665 0 .614-.277 1.218-.829 1.812-1.417 1.354-3.12 2.031-5.11 2.031-1.697 0-3.01-.484-3.937-1.453-.916-.958-1.354-2.323-1.312-4.094z"/>
    </g>
</svg>
